<svg width="156" height="178" viewBox="0 0 156 178" fill="none" xmlns="http://www.w3.org/2000/svg">
<path d="M113.349 57.345C106.847 54.4125 99.8768 52.245 92.588 51.0125C92.5231 51.0001 92.4559 51.0081 92.3958 51.0355C92.3356 51.0629 92.2855 51.1084 92.2523 51.1655C91.3598 52.7338 90.3653 54.778 89.6683 56.393C81.9379 55.238 74.0789 55.238 66.3485 56.393C65.5722 54.6032 64.6968 52.858 63.7263 51.1655C63.6934 51.1077 63.6436 51.0612 63.5836 51.0323C63.5237 51.0035 63.4563 50.9936 63.3905 51.004C56.106 52.2365 49.136 54.404 42.6293 57.3408C42.5733 57.3643 42.5259 57.4043 42.4933 57.4555C29.2673 76.8993 25.642 95.8628 27.4228 114.588C27.4277 114.634 27.442 114.679 27.4646 114.719C27.4873 114.759 27.5179 114.794 27.5545 114.822C35.2742 120.442 43.8845 124.724 53.0248 127.487C53.0885 127.507 53.1567 127.507 53.2203 127.487C53.284 127.467 53.3403 127.429 53.3818 127.377C55.3453 124.742 57.0963 121.958 58.5923 119.034C58.6815 118.864 58.5965 118.66 58.418 118.592C55.6726 117.558 53.0124 116.31 50.462 114.86C50.4162 114.834 50.3776 114.797 50.3497 114.752C50.3217 114.707 50.3053 114.656 50.302 114.604C50.2986 114.551 50.3083 114.498 50.3304 114.451C50.3524 114.403 50.3859 114.361 50.428 114.329C50.9635 113.934 51.499 113.522 52.009 113.109C52.0549 113.072 52.1102 113.049 52.1688 113.041C52.2273 113.034 52.2868 113.042 52.3405 113.067C69.0303 120.564 87.1055 120.564 103.6 113.067C103.654 113.041 103.714 113.031 103.773 113.038C103.833 113.045 103.889 113.068 103.936 113.105C104.446 113.522 104.977 113.934 105.517 114.329C105.559 114.36 105.593 114.401 105.616 114.449C105.639 114.496 105.649 114.549 105.647 114.602C105.644 114.654 105.629 114.705 105.601 114.75C105.574 114.796 105.536 114.833 105.491 114.86C102.95 116.322 100.306 117.559 97.5308 118.588C97.4882 118.603 97.4493 118.627 97.4169 118.659C97.3845 118.691 97.3591 118.729 97.3426 118.771C97.3261 118.813 97.3189 118.859 97.3213 118.904C97.3237 118.949 97.3357 118.994 97.3565 119.034C98.8865 121.954 100.638 124.733 102.563 127.372C102.603 127.426 102.659 127.467 102.722 127.488C102.786 127.51 102.855 127.511 102.92 127.491C112.076 124.736 120.7 120.452 128.428 114.822C128.466 114.796 128.498 114.762 128.521 114.722C128.545 114.682 128.559 114.638 128.564 114.593C130.689 92.943 125.003 74.1325 113.481 57.464C113.453 57.4099 113.406 57.3676 113.349 57.345ZM61.087 103.186C56.0635 103.186 51.9198 98.6423 51.9198 93.0705C51.9198 87.4945 55.9828 82.9555 61.087 82.9555C66.2295 82.9555 70.335 87.5328 70.2543 93.0705C70.2543 98.6465 66.1913 103.186 61.087 103.186ZM94.9808 103.186C89.953 103.186 85.8135 98.6423 85.8135 93.0705C85.8135 87.4945 89.8723 82.9555 94.9808 82.9555C100.123 82.9555 104.229 87.5328 104.148 93.0705C104.148 98.6465 100.128 103.186 94.9808 103.186Z" fill="#F8F8F8"/>
<path d="M78 3L3 46V132L78 175L153 132V46L78 3Z" stroke="#F8F8F8" stroke-width="5"/>
</svg>
