<svg width="54" height="64" viewBox="0 0 54 64" fill="none" xmlns="http://www.w3.org/2000/svg">
<path d="M27 2L1 17V47L27 62L53 47V17L27 2Z" stroke="#F8F8F8" stroke-width="2"/>
<g clip-path="url(#clip0_2_700)">
<path d="M26.998 16C22.649 16 22.107 16.021 20.405 16.093C18.696 16.177 17.54 16.442 16.52 16.838C15.4525 17.241 14.4857 17.872 13.687 18.687C12.8697 19.4838 12.2384 20.4511 11.838 21.52C11.442 22.54 11.177 23.696 11.093 25.405C11.016 27.108 11 27.649 11 31.998C11 36.347 11.021 36.889 11.093 38.591C11.177 40.295 11.442 41.456 11.838 42.476C12.241 43.5435 12.872 44.5103 13.687 45.309C14.4838 46.1263 15.4511 46.7576 16.52 47.158C17.54 47.549 18.701 47.819 20.405 47.903C22.108 47.98 22.649 47.996 26.998 47.996C31.347 47.996 31.889 47.975 33.591 47.903C35.295 47.819 36.456 47.548 37.476 47.158C38.5435 46.755 39.5103 46.124 40.309 45.309C41.1273 44.5131 41.7588 43.5455 42.158 42.476C42.549 41.456 42.819 40.295 42.903 38.591C42.98 36.888 42.996 36.347 42.996 31.998C42.996 27.649 42.975 27.107 42.903 25.405C42.819 23.701 42.548 22.534 42.158 21.52C41.755 20.4525 41.124 19.4857 40.309 18.687C39.5131 17.8687 38.5455 17.2372 37.476 16.838C36.456 16.442 35.295 16.177 33.591 16.093C31.888 16.016 31.347 16 26.998 16ZM26.998 18.88C31.269 18.88 31.779 18.901 33.467 18.973C35.024 19.046 35.872 19.306 36.435 19.526C37.131 19.7829 37.761 20.1919 38.279 20.723C38.8092 21.2388 39.2166 21.8673 39.471 22.562C39.691 23.125 39.951 23.973 40.024 25.53C40.096 27.218 40.117 27.729 40.117 31.999C40.117 36.269 40.096 36.78 40.018 38.468C39.934 40.025 39.674 40.873 39.455 41.436C39.152 42.187 38.814 42.712 38.256 43.28C37.7362 43.8078 37.1067 44.2148 36.412 44.472C35.856 44.692 34.996 44.952 33.433 45.025C31.736 45.097 31.236 45.118 26.954 45.118C22.672 45.118 22.173 45.097 20.474 45.019C18.917 44.935 18.058 44.675 17.495 44.456C16.735 44.153 16.214 43.815 15.656 43.257C15.093 42.694 14.735 42.158 14.459 41.413C14.235 40.857 13.979 39.997 13.896 38.434C13.839 36.757 13.812 36.237 13.812 31.975C13.812 27.715 13.839 27.194 13.896 25.496C13.979 23.933 14.235 23.075 14.459 22.517C14.735 21.756 15.094 21.236 15.656 20.673C16.213 20.116 16.735 19.756 17.495 19.474C18.058 19.255 18.896 18.995 20.459 18.917C22.156 18.856 22.656 18.834 26.932 18.834L26.998 18.88ZM26.998 23.787C25.9193 23.7866 24.8512 23.9988 23.8546 24.4114C22.8579 24.824 21.9524 25.4289 21.1897 26.1917C20.4269 26.9544 19.822 27.8599 19.4094 28.8566C18.9968 29.8532 18.7846 30.9213 18.785 32C18.7846 33.0787 18.9968 34.1468 19.4094 35.1434C19.822 36.1401 20.4269 37.0456 21.1897 37.8083C21.9524 38.5711 22.8579 39.176 23.8546 39.5886C24.8512 40.0012 25.9193 40.2134 26.998 40.213C28.0767 40.2134 29.1448 40.0012 30.1414 39.5886C31.1381 39.176 32.0436 38.5711 32.8063 37.8083C33.5691 37.0456 34.174 36.1401 34.5866 35.1434C34.9992 34.1468 35.2114 33.0787 35.211 32C35.2114 30.9213 34.9992 29.8532 34.5866 28.8566C34.174 27.8599 33.5691 26.9544 32.8063 26.1917C32.0436 25.4289 31.1381 24.824 30.1414 24.4114C29.1448 23.9988 28.0767 23.7866 26.998 23.787V23.787ZM26.998 37.333C24.05 37.333 21.665 34.948 21.665 32C21.665 29.052 24.05 26.667 26.998 26.667C29.946 26.667 32.331 29.052 32.331 32C32.331 34.948 29.946 37.333 26.998 37.333ZM37.462 23.459C37.4615 23.9687 37.2586 24.4573 36.8981 24.8175C36.5375 25.1777 36.0487 25.38 35.539 25.38C35.287 25.38 35.0375 25.3304 34.8046 25.2339C34.5718 25.1375 34.3603 24.9961 34.1821 24.8179C34.0039 24.6397 33.8625 24.4282 33.7661 24.1954C33.6696 23.9625 33.62 23.713 33.62 23.461C33.62 23.209 33.6696 22.9595 33.7661 22.7266C33.8625 22.4938 34.0039 22.2823 34.1821 22.1041C34.3603 21.9259 34.5718 21.7845 34.8046 21.6881C35.0375 21.5916 35.287 21.542 35.539 21.542C36.596 21.542 37.462 22.402 37.462 23.459V23.459Z" fill="#F8F8F8"/>
</g>
<defs>
<clipPath id="clip0_2_700">
<rect width="32" height="32" fill="white" transform="translate(11 16)"/>
</clipPath>
</defs>
</svg>
