<svg width="54" height="64" viewBox="0 0 54 64" fill="none" xmlns="http://www.w3.org/2000/svg">
<path d="M27 2L1 17V47L27 62L53 47V17L27 2Z" stroke="#F8F8F8" stroke-width="2"/>
<g clip-path="url(#clip0_2_712)">
<path d="M42.939 22.0974C41.7413 22.6239 40.4728 22.9716 39.174 23.1294C40.5431 22.3077 41.568 21.0177 42.059 19.4984C40.7641 20.2494 39.3547 20.7828 37.887 21.0774C36.9 20.0228 35.5926 19.3235 34.1676 19.0879C32.7426 18.8523 31.2797 19.0935 30.0058 19.7742C28.7319 20.4549 27.7183 21.537 27.1222 22.8526C26.5261 24.1682 26.3809 25.6438 26.709 27.0504C21.256 26.7954 16.422 24.1754 13.189 20.2174C12.6005 21.2183 12.2927 22.3593 12.298 23.5204C12.2972 24.5998 12.5629 25.6626 13.0716 26.6146C13.5803 27.5666 14.3162 28.3782 15.214 28.9774C14.1736 28.9459 13.1559 28.6658 12.246 28.1604V28.2394C12.2457 29.7544 12.7692 31.2229 13.7279 32.3961C14.6865 33.5693 16.0213 34.3749 17.506 34.6764C16.9436 34.8267 16.3641 34.9036 15.782 34.9054C15.361 34.9054 14.959 34.8644 14.558 34.7904C14.9805 36.0941 15.799 37.2337 16.8995 38.0504C18 38.8672 19.3278 39.3206 20.698 39.3474C18.3764 41.1655 15.5118 42.1518 12.563 42.1484C12.0407 42.1505 11.5188 42.1211 11 42.0604C14.0081 43.9879 17.5064 45.0111 21.079 45.0084C33.146 45.0084 39.74 35.0134 39.74 26.3574C39.74 26.0814 39.74 25.8004 39.719 25.5184C41.0089 24.5939 42.1205 23.4433 43 22.1224L42.939 22.0974Z" fill="#F8F8F8"/>
</g>
<defs>
<clipPath id="clip0_2_712">
<rect width="32" height="32" fill="white" transform="translate(11 16)"/>
</clipPath>
</defs>
</svg>
